<svg width="60" height="51" xmlns="http://www.w3.org/2000/svg">

 <g>
  <title>background</title>
  <rect fill="none" id="canvas_background" height="53" width="62" y="-1" x="-1"/>
 </g>
 <g>
  <title>Layer 1</title>
  <ellipse id="svg_1" fill="#7EC95C" transform="rotate(18.294599533081055 25.368701934814457,30.759395599365234) " ry="14" rx="24.5" cy="30.759396" cx="25.368701"/>
  <path id="svg_2" fill="#675A54" d="m39.024922,8.50015l0,-5.1l-6.8,0l0,5.1l-5.1,0l0,6.79995l5.1,0l0,5.1l6.8,0l0,-5.1l5.1,0l0,-6.79995l-5.1,0zm3.4,5.09995l-5.1,0l0,5.1l-3.4,0l0,-5.1l-5.1,0l0,-3.4l5.1,0l0,-5.09995l3.4,0l0,5.09995l5.1,0l0,3.4z"/>
  <path id="svg_3" fill="#675A54" d="m47.524896,18.6375l0,-18.7l-23.7999,0l0,18.7l-11.90005,0l0,32.3l47.59995,0l0,-32.3l-11.9,0zm-23.7999,30.6l-10.20005,0l0,-28.9l10.20005,0l0,28.9zm11.05,0l-4.25,0l0,-15.3l4.25,0l0,15.3zm5.95,0l-4.25,0l0,-15.3l4.25,0l0,15.3zm5.1,0l-3.4001,0l0,-17l-13.5999,0l0,17l-3.4,0l0,-47.6l20.4,0l0,47.6zm11.8999,0l-10.2,0l0,-28.9l10.2,0l0,28.9z"/>
 </g>
</svg>