<svg width="22" height="20" xmlns="http://www.w3.org/2000/svg">
 <g>
  <title>background</title>
  <rect x="-1" y="-1" width="24" height="22" id="canvas_background" fill="none"/>
 </g>

 <g>
  <title>Layer 1</title>
  <path d="m4.506501,4.923482l0.649349,0l1.2987,0l11.039,0c0.3591,0 0.6493,-0.2602 0.6493,-0.5808c0,-0.320595 -0.2902,-0.580792 -0.6493,-0.580792l-11.039,0l-1.2987,0l-0.649349,0c-0.359091,0 -0.649351,0.260197 -0.649351,0.580792c0,0.3206 0.29026,0.5808 0.649351,0.5808z" fill="#48AD19" id="svg_1"/>
  <path d="m11.649349,11.908028l-1.2987,0c-2.35908,-0.84369 -3.896088,-2.82255 -3.896088,-5.01684l0,-1.95099l9.090878,0l0,1.95099c0,2.19429 -1.53701,4.17315 -3.89609,5.01684z" fill="#7EC95C" id="svg_2"/>
  <path transform="rotate(180 10.999999046325682,15.353935241699219) " d="m11.649349,18.837851l-1.2987,0c-2.35908,-0.84369 -3.896088,-2.82255 -3.896088,-5.01684l0,-1.95099l9.090878,0l0,1.95099c0,2.19429 -1.53701,4.17315 -3.89609,5.01684z" fill="#7EC95C" id="svg_3"/>
  <path d="m4.506501,19.999999l0.649349,0l1.2987,0l11.039,0c0.3591,0 0.6493,-0.2602 0.6493,-0.5808c0,-0.320595 -0.2902,-0.580792 -0.6493,-0.580792l-11.039,0l-1.2987,0l-0.649349,0c-0.359091,0 -0.649351,0.260197 -0.649351,0.580792c0,0.3206 0.29026,0.5808 0.649351,0.5808z" fill="#48AD19" id="svg_4"/>
 </g>
</svg>