<svg width="49" height="49" xmlns="http://www.w3.org/2000/svg">

 <g>
  <title>background</title>
  <rect fill="none" id="canvas_background" height="402" width="582" y="-1" x="-1"/>
 </g>
 <g>
  <title>Layer 1</title>
  <path id="svg_1" stroke="#959595" d="m25.49095,46.904977c12.4264,0 22.5,-10.0736 22.5,-22.5c0,-12.4264 -10.0736,-22.5 -22.5,-22.5c-12.4264,0 -22.5,10.0736 -22.5,22.5c0,12.4264 10.0736,22.5 22.5,22.5z" clip-rule="evenodd" fill-rule="evenodd" opacity="0.4" fill="none"/>
  <path id="svg_2" stroke-linejoin="round" stroke-linecap="round" stroke-width="3" stroke="#B0E07D" d="m24,2c-12.4264,0 -22.5,10.0736 -22.5,22.5c0,6.024 2.36738,11.4951 6.22255,15.5337c0.90881,0.9521 1.90031,1.8245 2.96295,2.6058c3.7282,2.7411 8.3322,4.3605 13.3145,4.3605" fill="none"/>
  <path id="svg_3" fill="#B0E07D" d="m33.207112,25.207102c0.3905,-0.39053 0.3905,-1.02369 0,-1.41422l-6.364,-6.36396c-0.3905,-0.39052 -1.0236,-0.39052 -1.4142,0c-0.3905,0.39053 -0.3905,1.02369 0,1.41422l5.6569,5.65685l-5.6569,5.6569c-0.3905,0.3905 -0.3905,1.0236 0,1.4142c0.3906,0.3905 1.0237,0.3905 1.4142,0l6.364,-6.36399zm-17.7071,0.29289l17,0l0,-2l-17,0l0,2z"/>
 </g>
</svg>