<svg width="22" height="20" xmlns="http://www.w3.org/2000/svg">
 <g>
  <title>background</title>
  <rect x="-1" y="-1" width="24" height="22" id="canvas_background" fill="none"/>
 </g>

 <g>
  <title>Layer 1</title>
  <path d="m18.14285,8.843659l-14.2857,0l0,10.99909l14.2857,0l0,-10.99909z" fill="#7EC95C" id="svg_1"/>
  <path d="m7.428545,7.507619c0,-1.89528 1.60215,-3.43721 3.57143,-3.43721c1.96929,0 3.57143,1.54193 3.57143,3.43721l0,1.37489l1.42862,0l0,-1.37489c0,-2.65353 -2.2429,-4.8121 -5.00005,-4.8121c-2.75714,0 -5,2.15857 -5,4.8121l0,1.37489l1.42857,0l0,-1.37489z" fill="#48AD19" id="svg_2" stroke="null"/>
  <path d="m13.142855,13.312044c0,-1.13908 -0.95928,-2.06231 -2.14285,-2.06231c-1.18357,0 -2.14286,0.92323 -2.14286,2.06231c0,0.90536 0.61,1.66635 1.45357,1.94339c-0.00786,0.03987 -0.025,0.07699 -0.025,0.11893l0,1.37487c0,0.37947 0.32,0.68744 0.71429,0.68744c0.39428,0 0.71428,-0.30797 0.71428,-0.68744l0,-1.37487c0,-0.04194 -0.01714,-0.07906 -0.025,-0.11893c0.84357,-0.27704 1.45357,-1.03803 1.45357,-1.94339z" fill="#48AD19" id="svg_3"/>
 </g>
</svg>