<svg width="195" height="180" xmlns="http://www.w3.org/2000/svg">

 <g>
  <title>background</title>
  <rect fill="none" id="canvas_background" height="182" width="197" y="-1" x="-1"/>
 </g>
 <g>
  <title>Layer 1</title>
  <circle id="svg_1" fill="#7EC95C" r="83" cy="97" cx="83"/>
  <path id="svg_2" fill="#675A54" d="m114.375198,6.86727c42.1306,1.8364 75.0806,37.00943 74.2376,79.20883c0,0.0001 0,0.0002 0,0.0002c-0.001,0.0457 -0.002,0.0914 -0.003,0.137c-0.918,42.2507 -35.378,76.0227 -77.5796,76.0397c-0.0101,0 -0.0203,0 -0.0304,0c-0.0101,0 -0.0203,0 -0.0304,0c-42.2,-0.017 -76.66014,-33.789 -77.57787,-76.0397c-0.00099,-0.0457 -0.00194,-0.0915 -0.00286,-0.1372c-0.84366,-42.1995 32.10733,-77.37256 74.23603,-79.20884c0.1031,0 0.2035,-0.00006 0.3012,-0.00016c0,0 0.0001,0 0.0001,0c3.3588,-0.00342 3.5642,-0.0644 3.7737,-0.0879c0.175,-0.01963 0.3529,-0.01311 2.3745,0.07495c0.096,0.00418 0.1962,0.00855 0.3007,0.01311c0.0001,0 0.0002,0 0.0003,0.00001zm80.6046,79.48443c-0.992,45.7773 -38.233,82.4423 -83.98,82.6483c-45.7456,-0.206 -82.98609,-36.871 -83.97969,-82.6483c-0.00108,-0.0494 -0.00211,-0.0988 -0.00309,-0.1483c-0.91434,-45.748 34.70398,-83.89177 80.31368,-86.08157c0.0979,-0.0047 0.1959,-0.00924 0.294,-0.01361c3.7671,-0.1679 4.6836,-0.10425 5.4858,-0.04855c0.3613,0.02509 0.6995,0.04857 1.2644,0.04855c0.0981,0.00437 0.1961,0.00891 0.294,0.01361c45.6099,2.18979 81.2279,40.33357 80.3139,86.08157c-0.001,0.0495 -0.002,0.0989 -0.003,0.1483z" clip-rule="evenodd" fill-rule="evenodd"/>
  <path id="svg_3" fill="#675A54" d="m90.3767,91.3617c5.52,10.8483 14.4133,19.7033 25.2616,25.2616l8.4334,-8.4333c1.035,-1.035 2.5683,-1.38 3.91,-0.92c4.2933,1.4183 8.9316,2.185 13.685,2.185c2.1083,0 3.8333,1.725 3.8333,3.8333l0,13.3784c0,2.1083 -1.725,3.8333 -3.8333,3.8333c-35.995,0 -65.1667,-29.1717 -65.1667,-65.1667c0,-2.1083 1.725,-3.8333 3.8333,-3.8333l13.4167,0c2.1083,0 3.8333,1.725 3.8333,3.8333c0,4.7917 0.7667,9.3917 2.185,13.685c0.4217,1.3417 0.115,2.8367 -0.9583,3.91l-8.4333,8.4334z"/>
 </g>
</svg>